{
    "asset" : {
        "generator" : "Khronos glTF Blender I/O v1.8.19",
        "version" : "2.0"
    },
    "scene" : 0,
    "scenes" : [
        {
            "name" : "Scene",
            "nodes" : [
                2,
                20
            ]
        }
    ],
    "nodes" : [
        {
            "name" : "Hands_Low:Group52896"
        },
        {
            "children" : [
                0
            ],
            "name" : "Collada visual scene group",
            "rotation" : [
                0.7071068286895752,
                0,
                0,
                0.7071068286895752
            ]
        },
        {
            "children" : [
                1
            ],
            "name" : "Sketchfab_model",
            "rotation" : [
                -0.7071068286895752,
                0,
                0,
                0.7071068286895752
            ]
        },
        {
            "name" : "thumb_2",
            "rotation" : [
                -0.021092286333441734,
                -0.0643477812409401,
                -0.08951576799154282,
                0.9936807751655579
            ],
            "scale" : [
                0.9999999403953552,
                1,
                0.9999998807907104
            ],
            "translation" : [
                1.8571650173271337e-07,
                0.6288772821426392,
                -2.0407466649885464e-07
            ]
        },
        {
            "children" : [
                3
            ],
            "name" : "thumb_1",
            "rotation" : [
                0.21206334233283997,
                0.40938636660575867,
                -0.274912565946579,
                0.8437150716781616
            ],
            "scale" : [
                1.0000001192092896,
                1,
                1.0000001192092896
            ],
            "translation" : [
                0.8474047183990479,
                1.6623362302780151,
                2.121980905532837
            ]
        },
        {
            "name" : "index_3",
            "rotation" : [
                0.010215039364993572,
                -0.0016243066638708115,
                -0.0994577705860138,
                0.9949880242347717
            ],
            "scale" : [
                1,
                1.0000001192092896,
                1.0000001192092896
            ],
            "translation" : [
                7.654243177057651e-07,
                0.8769863843917847,
                -7.393342116301937e-08
            ]
        },
        {
            "children" : [
                5
            ],
            "name" : "index_2",
            "rotation" : [
                0.04050604999065399,
                -0.016721151769161224,
                -0.1251281052827835,
                0.9911723732948303
            ],
            "scale" : [
                0.9999998211860657,
                1.0000001192092896,
                1
            ],
            "translation" : [
                -1.7881393432617188e-07,
                0.7626468539237976,
                3.2782554626464844e-07
            ]
        },
        {
            "children" : [
                6
            ],
            "name" : "index_1",
            "rotation" : [
                0.011279134079813957,
                0.02588704787194729,
                -0.17997191846370697,
                0.9832664132118225
            ],
            "scale" : [
                1,
                0.9999999403953552,
                1
            ],
            "translation" : [
                -0.10547241568565369,
                3.5286049842834473,
                1.1765708923339844
            ]
        },
        {
            "name" : "middle_3",
            "rotation" : [
                0.03136614337563515,
                -0.09589320421218872,
                -0.2664429545402527,
                0.9585555791854858
            ],
            "scale" : [
                1.000000238418579,
                1,
                1.0000001192092896
            ],
            "translation" : [
                1.0152112395189761e-07,
                1.021412968635559,
                -4.381739699965692e-07
            ]
        },
        {
            "children" : [
                8
            ],
            "name" : "middle_2",
            "rotation" : [
                0.027620919048786163,
                -0.012324820272624493,
                -0.09035985916852951,
                0.9954499006271362
            ],
            "scale" : [
                0.9999998807907104,
                1,
                0.9999999403953552
            ],
            "translation" : [
                5.960464477539062e-07,
                0.639994740486145,
                2.9802322387695312e-08
            ]
        },
        {
            "children" : [
                9
            ],
            "name" : "middle_1",
            "rotation" : [
                -0.026746856048703194,
                0.0015864729648455977,
                -0.2580370008945465,
                0.9657634496688843
            ],
            "scale" : [
                1.3551709651947021,
                1.3693158626556396,
                1.0140806436538696
            ],
            "translation" : [
                0.1584566831588745,
                3.485090970993042,
                0.40643709897994995
            ]
        },
        {
            "name" : "ring_3",
            "rotation" : [
                0.04543295502662659,
                -0.05641454830765724,
                -0.22461649775505066,
                0.97175133228302
            ],
            "scale" : [
                0.9999999403953552,
                1,
                1
            ],
            "translation" : [
                -1.6652666801064697e-08,
                0.8331735134124756,
                4.882073056933223e-08
            ]
        },
        {
            "children" : [
                11
            ],
            "name" : "ring_2",
            "rotation" : [
                0.0821143314242363,
                -0.016720885410904884,
                -0.14850792288780212,
                0.9853543043136597
            ],
            "scale" : [
                1,
                1.0000001192092896,
                1.0000001192092896
            ],
            "translation" : [
                1.5143682219331822e-07,
                0.5085273385047913,
                -5.499743949144431e-08
            ]
        },
        {
            "children" : [
                12
            ],
            "name" : "ring_1",
            "rotation" : [
                -0.07876481115818024,
                -0.0044655585661530495,
                -0.25569820404052734,
                0.9635323882102966
            ],
            "scale" : [
                1.0000001192092896,
                0.9999998807907104,
                1.0000001192092896
            ],
            "translation" : [
                0.4186769425868988,
                3.236233711242676,
                -0.3615179657936096
            ]
        },
        {
            "name" : "little_3",
            "rotation" : [
                0.08888719975948334,
                0.07652074843645096,
                -0.14810745418071747,
                0.9819917678833008
            ],
            "scale" : [
                1.0000001192092896,
                0.9999999403953552,
                1.0000001192092896
            ],
            "translation" : [
                7.365050578300725e-07,
                0.7184958457946777,
                7.832680637420708e-08
            ]
        },
        {
            "children" : [
                14
            ],
            "name" : "little_2",
            "rotation" : [
                0.06754705309867859,
                0.027763182297348976,
                -0.07129807025194168,
                0.9947779774665833
            ],
            "scale" : [
                1.0000001192092896,
                1,
                1
            ],
            "translation" : [
                -2.5644611767461356e-08,
                0.4258614778518677,
                1.7760660853127774e-07
            ]
        },
        {
            "children" : [
                15
            ],
            "name" : "little_1",
            "rotation" : [
                -0.03026096150279045,
                -0.01060537900775671,
                -0.29189273715019226,
                0.9559134244918823
            ],
            "scale" : [
                1,
                1,
                1.0000001192092896
            ],
            "translation" : [
                0.7195050716400146,
                2.8032824993133545,
                -0.9286513924598694
            ]
        },
        {
            "children" : [
                4,
                7,
                10,
                13,
                16
            ],
            "name" : "palm",
            "rotation" : [
                -0.07392914593219757,
                -0.021755188703536987,
                -0.05861008167266846,
                0.9953020215034485
            ],
            "scale" : [
                1,
                1.0000001192092896,
                1.0000001192092896
            ],
            "translation" : [
                1.1649176201444789e-07,
                3.3128044605255127,
                1.321780302987463e-07
            ]
        },
        {
            "children" : [
                17
            ],
            "name" : "wrist",
            "rotation" : [
                0.1651040017604828,
                -0.057603608816862106,
                -0.7486692070960999,
                0.6394661664962769
            ],
            "scale" : [
                1,
                0.9999998211860657,
                0.9999999403953552
            ]
        },
        {
            "mesh" : 0,
            "name" : "defaultMaterial",
            "skin" : 0
        },
        {
            "children" : [
                19,
                18
            ],
            "name" : "\u9aa8\u67b6"
        }
    ],
    "materials" : [
        {
            "doubleSided" : true,
            "name" : "Hands_Low_defaultMat1",
            "normalTexture" : {
                "index" : 0
            },
            "pbrMetallicRoughness" : {
                "baseColorTexture" : {
                    "index" : 1
                },
                "metallicRoughnessTexture" : {
                    "index" : 2
                }
            }
        }
    ],
    "meshes" : [
        {
            "name" : "defaultMaterial",
            "primitives" : [
                {
                    "attributes" : {
                        "POSITION" : 0,
                        "NORMAL" : 1,
                        "TEXCOORD_0" : 2,
                        "JOINTS_0" : 3,
                        "WEIGHTS_0" : 4
                    },
                    "indices" : 5,
                    "material" : 0
                }
            ]
        }
    ],
    "textures" : [
        {
            "sampler" : 0,
            "source" : 0
        },
        {
            "sampler" : 0,
            "source" : 1
        },
        {
            "sampler" : 0,
            "source" : 2
        }
    ],
    "images" : [
        {
            "mimeType" : "image/png",
            "name" : "Hands_Low_defaultMat1_normal.png.001",
            "uri" : "textures/Hands_Low_defaultMat1_normal.png"
        },
        {
            "mimeType" : "image/jpeg",
            "name" : "Hands_Low_defaultMat1_baseColor.jpeg.001",
            "uri" : "textures/Hands_Low_defaultMat1_baseColor.jpeg"
        },
        {
            "mimeType" : "image/png",
            "name" : "Hands_Low_defaultMat1_metallicRoughness.png.001",
            "uri" : "textures/Hands_Low_defaultMat1_metallicRoughness.png"
        }
    ],
    "skins" : [
        {
            "inverseBindMatrices" : 6,
            "joints" : [
                18,
                17,
                4,
                3,
                7,
                6,
                5,
                10,
                9,
                8,
                13,
                12,
                11,
                16,
                15,
                14
            ],
            "name" : "\u9aa8\u67b6"
        }
    ],
    "accessors" : [
        {
            "bufferView" : 0,
            "componentType" : 5126,
            "count" : 70774,
            "max" : [
                8.045024871826172,
                1.1334484815597534,
                3.63570237159729
            ],
            "min" : [
                -0.4098493158817291,
                -4.316971302032471,
                -1.2651455402374268
            ],
            "type" : "VEC3"
        },
        {
            "bufferView" : 1,
            "componentType" : 5126,
            "count" : 70774,
            "type" : "VEC3"
        },
        {
            "bufferView" : 2,
            "componentType" : 5126,
            "count" : 70774,
            "type" : "VEC2"
        },
        {
            "bufferView" : 3,
            "componentType" : 5121,
            "count" : 70774,
            "type" : "VEC4"
        },
        {
            "bufferView" : 4,
            "componentType" : 5126,
            "count" : 70774,
            "type" : "VEC4"
        },
        {
            "bufferView" : 5,
            "componentType" : 5125,
            "count" : 412224,
            "type" : "SCALAR"
        },
        {
            "bufferView" : 6,
            "componentType" : 5126,
            "count" : 16,
            "type" : "MAT4"
        }
    ],
    "bufferViews" : [
        {
            "buffer" : 0,
            "byteLength" : 849288,
            "byteOffset" : 0
        },
        {
            "buffer" : 0,
            "byteLength" : 849288,
            "byteOffset" : 849288
        },
        {
            "buffer" : 0,
            "byteLength" : 566192,
            "byteOffset" : 1698576
        },
        {
            "buffer" : 0,
            "byteLength" : 283096,
            "byteOffset" : 2264768
        },
        {
            "buffer" : 0,
            "byteLength" : 1132384,
            "byteOffset" : 2547864
        },
        {
            "buffer" : 0,
            "byteLength" : 1648896,
            "byteOffset" : 3680248
        },
        {
            "buffer" : 0,
            "byteLength" : 1024,
            "byteOffset" : 5329144
        }
    ],
    "samplers" : [
        {
            "magFilter" : 9729,
            "minFilter" : 9987
        }
    ],
    "buffers" : [
        {
            "byteLength" : 5330168,
            "uri" : "man_hand_left7.bin"
        }
    ]
}
