{
    "asset" : {
        "generator" : "Khronos glTF Blender I/O v1.8.19",
        "version" : "2.0"
    },
    "scene" : 0,
    "scenes" : [
        {
            "name" : "Scene",
            "nodes" : [
                2,
                20
            ]
        }
    ],
    "nodes" : [
        {
            "name" : "Hands_Low:Group52896"
        },
        {
            "children" : [
                0
            ],
            "name" : "Collada visual scene group",
            "rotation" : [
                0.7071068286895752,
                0,
                0,
                0.7071068286895752
            ]
        },
        {
            "children" : [
                1
            ],
            "name" : "Sketchfab_model",
            "rotation" : [
                -0.7071068286895752,
                0,
                0,
                0.7071068286895752
            ]
        },
        {
            "name" : "thumb_2",
            "rotation" : [
                -0.021092338487505913,
                -0.06434768438339233,
                -0.08951607346534729,
                0.9936807155609131
            ],
            "scale" : [
                1,
                0.9999999403953552,
                0.9999999403953552
            ],
            "translation" : [
                5.852871822753514e-07,
                0.6288785934448242,
                -1.4447731189193291e-07
            ]
        },
        {
            "children" : [
                3
            ],
            "name" : "thumb_1",
            "rotation" : [
                0.21206346154212952,
                0.4093863368034363,
                -0.2749125361442566,
                0.8437150120735168
            ],
            "scale" : [
                1,
                1.0000001192092896,
                1.0000001192092896
            ],
            "translation" : [
                0.8474051356315613,
                1.662337303161621,
                2.121981143951416
            ]
        },
        {
            "name" : "index_3",
            "rotation" : [
                0.010215111076831818,
                -0.0016241618432104588,
                -0.0994580090045929,
                0.9949880838394165
            ],
            "translation" : [
                8.155927275765862e-07,
                0.8769866228103638,
                4.4817929278906377e-07
            ]
        },
        {
            "children" : [
                5
            ],
            "name" : "index_2",
            "rotation" : [
                0.04050598666071892,
                -0.016721295192837715,
                -0.12512823939323425,
                0.9911724328994751
            ],
            "scale" : [
                1.0000001192092896,
                1.000000238418579,
                1.0000001192092896
            ],
            "translation" : [
                -1.308248869236195e-07,
                0.7626454830169678,
                2.901325331094995e-07
            ]
        },
        {
            "children" : [
                6
            ],
            "name" : "index_1",
            "rotation" : [
                0.011279147118330002,
                0.025887073948979378,
                -0.17997199296951294,
                0.9832663536071777
            ],
            "scale" : [
                0.9999999403953552,
                0.9999999403953552,
                1.0000001192092896
            ],
            "translation" : [
                -0.10547231137752533,
                3.5286076068878174,
                1.1765704154968262
            ]
        },
        {
            "name" : "middle_3",
            "rotation" : [
                0.031366076320409775,
                -0.09589337557554245,
                -0.2664429545402527,
                0.9585555791854858
            ],
            "scale" : [
                0.9999999403953552,
                0.9999999403953552,
                1
            ],
            "translation" : [
                5.015648980588594e-07,
                1.0214126110076904,
                1.3286170030823996e-07
            ]
        },
        {
            "children" : [
                8
            ],
            "name" : "middle_2",
            "rotation" : [
                0.027620892971754074,
                -0.012324846349656582,
                -0.09035990387201309,
                0.9954499006271362
            ],
            "scale" : [
                0.9999998807907104,
                0.9999999403953552,
                1
            ],
            "translation" : [
                9.199221722155926e-07,
                0.6399956345558167,
                3.849114023068978e-07
            ]
        },
        {
            "children" : [
                9
            ],
            "name" : "middle_1",
            "rotation" : [
                -0.026746956631541252,
                0.0015865047462284565,
                -0.25803714990615845,
                0.965763509273529
            ],
            "scale" : [
                1,
                1.0000001192092896,
                0.9999999403953552
            ],
            "translation" : [
                0.15845665335655212,
                3.4850926399230957,
                0.406436562538147
            ]
        },
        {
            "name" : "ring_3",
            "rotation" : [
                0.04543285444378853,
                -0.056414589285850525,
                -0.22461682558059692,
                0.9717512726783752
            ],
            "scale" : [
                1.0000001192092896,
                1.0000001192092896,
                1.000000238418579
            ],
            "translation" : [
                6.447123723773984e-09,
                0.8331738710403442,
                -1.394066515558734e-07
            ]
        },
        {
            "children" : [
                11
            ],
            "name" : "ring_2",
            "rotation" : [
                0.08211434632539749,
                -0.016721012070775032,
                -0.14850789308547974,
                0.9853543043136597
            ],
            "scale" : [
                0.9999999403953552,
                0.9999998807907104,
                1
            ],
            "translation" : [
                1.467107722419314e-06,
                0.5085272192955017,
                3.6645859680106696e-09
            ]
        },
        {
            "children" : [
                12
            ],
            "name" : "ring_1",
            "rotation" : [
                -0.07876486331224442,
                -0.004465542268007994,
                -0.25569820404052734,
                0.9635323882102966
            ],
            "scale" : [
                0.9999999403953552,
                0.9999999403953552,
                0.9999999403953552
            ],
            "translation" : [
                0.4186778962612152,
                3.2362353801727295,
                -0.36151862144470215
            ]
        },
        {
            "name" : "little_3",
            "rotation" : [
                0.0888872742652893,
                0.07652079313993454,
                -0.1481076180934906,
                0.9819917678833008
            ],
            "scale" : [
                1.0000001192092896,
                1.0000001192092896,
                1.0000001192092896
            ],
            "translation" : [
                -7.597102467116201e-07,
                0.718496561050415,
                -3.510683086460631e-07
            ]
        },
        {
            "children" : [
                14
            ],
            "name" : "little_2",
            "rotation" : [
                0.06754706799983978,
                0.02776327170431614,
                -0.07129807025194168,
                0.9947779774665833
            ],
            "scale" : [
                1.0000001192092896,
                1,
                0.9999999403953552
            ],
            "translation" : [
                5.128845259605441e-07,
                0.42586207389831543,
                -1.626479786409618e-07
            ]
        },
        {
            "children" : [
                15
            ],
            "name" : "little_1",
            "rotation" : [
                -0.03026105836033821,
                -0.01060547772794962,
                -0.2918928861618042,
                0.9559133648872375
            ],
            "scale" : [
                0.9999999403953552,
                1,
                1
            ],
            "translation" : [
                0.7195060849189758,
                2.8032829761505127,
                -0.9286516904830933
            ]
        },
        {
            "children" : [
                4,
                7,
                10,
                13,
                16
            ],
            "name" : "palm",
            "rotation" : [
                -0.07392915338277817,
                -0.021755322813987732,
                -0.05861009284853935,
                0.9953020215034485
            ],
            "scale" : [
                0.9999999403953552,
                1.0000001192092896,
                1
            ],
            "translation" : [
                4.4424435685641583e-08,
                3.312804937362671,
                -7.48113926363203e-09
            ]
        },
        {
            "children" : [
                17
            ],
            "name" : "wrist",
            "rotation" : [
                0.16510412096977234,
                -0.057603590190410614,
                -0.7486692070960999,
                0.6394661664962769
            ],
            "scale" : [
                1.0000001192092896,
                1.0000001192092896,
                1
            ]
        },
        {
            "mesh" : 0,
            "name" : "defaultMaterial",
            "skin" : 0
        },
        {
            "children" : [
                19,
                18
            ],
            "name" : "\u9aa8\u67b6",
            "scale" : [
                1,
                1,
                -1
            ]
        }
    ],
    "materials" : [
        {
            "doubleSided" : true,
            "name" : "Material",
            "normalTexture" : {
                "index" : 0
            },
            "pbrMetallicRoughness" : {
                "baseColorTexture" : {
                    "index" : 1
                },
                "metallicRoughnessTexture" : {
                    "index" : 2
                }
            }
        }
    ],
    "meshes" : [
        {
            "name" : "defaultMaterial",
            "primitives" : [
                {
                    "attributes" : {
                        "POSITION" : 0,
                        "NORMAL" : 1,
                        "TEXCOORD_0" : 2,
                        "JOINTS_0" : 3,
                        "WEIGHTS_0" : 4
                    },
                    "indices" : 5,
                    "material" : 0
                }
            ]
        }
    ],
    "textures" : [
        {
            "sampler" : 0,
            "source" : 0
        },
        {
            "sampler" : 0,
            "source" : 1
        },
        {
            "sampler" : 0,
            "source" : 2
        }
    ],
    "images" : [
        {
            "mimeType" : "image/png",
            "name" : "Hands_Low_defaultMat1_normal.png",
            "uri" : "textures/Hands_Low_defaultMat1_normal.png"
        },
        {
            "mimeType" : "image/jpeg",
            "name" : "Hands_Low_defaultMat1_baseColor.jpeg",
            "uri" : "textures/Hands_Low_defaultMat1_baseColor.jpeg"
        },
        {
            "mimeType" : "image/png",
            "name" : "Hands_Low_defaultMat1_metallicRoughness.png",
            "uri" : "textures/Hands_Low_defaultMat1_metallicRoughness.png"
        }
    ],
    "skins" : [
        {
            "inverseBindMatrices" : 6,
            "joints" : [
                18,
                17,
                4,
                3,
                7,
                6,
                5,
                10,
                9,
                8,
                13,
                12,
                11,
                16,
                15,
                14
            ],
            "name" : "\u9aa8\u67b6"
        }
    ],
    "accessors" : [
        {
            "bufferView" : 0,
            "componentType" : 5126,
            "count" : 70774,
            "max" : [
                8.045026779174805,
                1.1334487199783325,
                1.2651456594467163
            ],
            "min" : [
                -0.4098493158817291,
                -4.316971302032471,
                -3.6357038021087646
            ],
            "type" : "VEC3"
        },
        {
            "bufferView" : 1,
            "componentType" : 5126,
            "count" : 70774,
            "type" : "VEC3"
        },
        {
            "bufferView" : 2,
            "componentType" : 5126,
            "count" : 70774,
            "type" : "VEC2"
        },
        {
            "bufferView" : 3,
            "componentType" : 5121,
            "count" : 70774,
            "type" : "VEC4"
        },
        {
            "bufferView" : 4,
            "componentType" : 5126,
            "count" : 70774,
            "type" : "VEC4"
        },
        {
            "bufferView" : 5,
            "componentType" : 5125,
            "count" : 412224,
            "type" : "SCALAR"
        },
        {
            "bufferView" : 6,
            "componentType" : 5126,
            "count" : 16,
            "type" : "MAT4"
        }
    ],
    "bufferViews" : [
        {
            "buffer" : 0,
            "byteLength" : 849288,
            "byteOffset" : 0
        },
        {
            "buffer" : 0,
            "byteLength" : 849288,
            "byteOffset" : 849288
        },
        {
            "buffer" : 0,
            "byteLength" : 566192,
            "byteOffset" : 1698576
        },
        {
            "buffer" : 0,
            "byteLength" : 283096,
            "byteOffset" : 2264768
        },
        {
            "buffer" : 0,
            "byteLength" : 1132384,
            "byteOffset" : 2547864
        },
        {
            "buffer" : 0,
            "byteLength" : 1648896,
            "byteOffset" : 3680248
        },
        {
            "buffer" : 0,
            "byteLength" : 1024,
            "byteOffset" : 5329144
        }
    ],
    "samplers" : [
        {
            "magFilter" : 9729,
            "minFilter" : 9987
        }
    ],
    "buffers" : [
        {
            "byteLength" : 5330168,
            "uri" : "man_hand_right.bin"
        }
    ]
}
