{"accessors" : [{"bufferView" : 0, "byteOffset" : 0, "componentType" : 5123, "count" : 8352, "type" : "SCALAR", "max" : [8351], "min" : [0]}, {"bufferView" : 1, "byteOffset" : 0, "componentType" : 5126, "count" : 8352, "type" : "VEC3", "max" : [85.16671752929688, 165.6251220703125, 15.00000286102295], "min" : [-85.16670227050781, -90.62992858886719, -15.000005722045898], "name" : "POSITION"}, {"bufferView" : 1, "byteOffset" : 12, "componentType" : 5126, "count" : 8352, "type" : "VEC3", "max" : [0.9999595880508423, 1.0000044107437134, 1.0000044107437134], "min" : [-0.9999595284461975, -1.0000044107437134, -1.0000044107437134], "name" : "NORMAL"}, {"bufferView" : 0, "byteOffset" : 16704, "componentType" : 5123, "count" : 564, "type" : "SCALAR", "max" : [563], "min" : [0]}, {"bufferView" : 2, "byteOffset" : 0, "componentType" : 5126, "count" : 564, "type" : "VEC3", "max" : [2.050227642059326, 1.3106895685195923, -1.3094463348388672], "min" : [-6.101460933685303, -1.0081958770751953, -4.17338752746582], "name" : "POSITION"}, {"bufferView" : 2, "byteOffset" : 12, "componentType" : 5126, "count" : 564, "type" : "VEC3", "max" : [0.8499573469161987, 0.8500799536705017, 0.9958952069282532], "min" : [-0.850583553314209, -0.9968354105949402, -0.9998452663421631], "name" : "NORMAL"}, {"bufferView" : 0, "byteOffset" : 17832, "componentType" : 5123, "count" : 564, "type" : "SCALAR", "max" : [563], "min" : [0]}, {"bufferView" : 3, "byteOffset" : 0, "componentType" : 5126, "count" : 564, "type" : "VEC3", "max" : [2.050227642059326, 1.3107059001922607, -1.3094463348388672], "min" : [-6.1014299392700195, -1.0081559419631958, -4.169322967529297], "name" : "POSITION"}, {"bufferView" : 3, "byteOffset" : 12, "componentType" : 5126, "count" : 564, "type" : "VEC3", "max" : [0.8498337268829346, 0.8501501679420471, 0.9959065318107605], "min" : [-0.8505101799964905, -0.9968589544296265, -0.9998279809951782], "name" : "NORMAL"}, {"bufferView" : 0, "byteOffset" : 18960, "componentType" : 5123, "count" : 13980, "type" : "SCALAR", "max" : [13979], "min" : [0]}, {"bufferView" : 4, "byteOffset" : 0, "componentType" : 5126, "count" : 13980, "type" : "VEC3", "max" : [-1.1769050359725952, 10.081931114196777, 1.3429197072982788], "min" : [-10.141180038452148, -10.081932067871094, -1.5000193119049072], "name" : "POSITION"}, {"bufferView" : 4, "byteOffset" : 12, "componentType" : 5126, "count" : 13980, "type" : "VEC3", "max" : [1.0000044107437134, 0.9995951056480408, 1.0000044107437134], "min" : [-1.0000044107437134, -0.9994366765022278, -1.0000044107437134], "name" : "NORMAL"}, {"bufferView" : 0, "byteOffset" : 46920, "componentType" : 5123, "count" : 45168, "type" : "SCALAR", "max" : [45167], "min" : [0]}, {"bufferView" : 5, "byteOffset" : 0, "componentType" : 5126, "count" : 45168, "type" : "VEC3", "max" : [10.086840629577637, 10.247694969177246, 2.9883170127868652], "min" : [-10.236689567565918, -10.247696876525879, -0.25], "name" : "POSITION"}, {"bufferView" : 5, "byteOffset" : 12, "componentType" : 5126, "count" : 45168, "type" : "VEC3", "max" : [0.9995690584182739, 0.9997764229774475, 1.0000044107437134], "min" : [-0.9995690584182739, -0.9997764229774475, -1.0000044107437134], "name" : "NORMAL"}], "asset" : {"generator" : "Aspose.3D 22.7", "version" : "2.0"}, "buffers" : [{"uri" : "data:application/octet-stream;base64,", "byteLength" : 1784352}], "bufferViews" : [{"buffer" : 0, "byteOffset" : 0, "byteLength" : 137256, "target" : 34963}, {"buffer" : 0, "byteOffset" : 137260, "byteLength" : 200448, "byteStride" : 24, "target" : 34962}, {"buffer" : 0, "byteOffset" : 337712, "byteLength" : 13536, "byteStride" : 24, "target" : 34962}, {"buffer" : 0, "byteOffset" : 351252, "byteLength" : 13536, "byteStride" : 24, "target" : 34962}, {"buffer" : 0, "byteOffset" : 364792, "byteLength" : 335520, "byteStride" : 24, "target" : 34962}, {"buffer" : 0, "byteOffset" : 700316, "byteLength" : 1084032, "byteStride" : 24, "target" : 34962}], "materials" : [{"name" : "", "pbrMetallicRoughness" : {"baseColorFactor" : [0.9279999732971191, 0.949999988079071, 0.9620000123977661, 1], "metallicFactor" : 1, "roughnessFactor" : 0.07000000029802322}, "emissiveFactor" : [0, 0, 0], "alphaMode" : "OPAQUE", "doubleSided" : false}, {"name" : "", "pbrMetallicRoughness" : {"baseColorFactor" : [0.9279999732971191, 0.949999988079071, 0.9620000123977661, 1], "metallicFactor" : 1, "roughnessFactor" : 0.07000000029802322}, "emissiveFactor" : [0, 0, 0], "alphaMode" : "OPAQUE", "doubleSided" : false}, {"name" : "", "pbrMetallicRoughness" : {"baseColorFactor" : [0.9279999732971191, 0.949999988079071, 0.9620000123977661, 1], "metallicFactor" : 1, "roughnessFactor" : 0.07000000029802322}, "emissiveFactor" : [0, 0, 0], "alphaMode" : "OPAQUE", "doubleSided" : false}, {"name" : "", "pbrMetallicRoughness" : {"baseColorFactor" : [0.9279999732971191, 0.949999988079071, 0.9620000123977661, 1], "metallicFactor" : 1, "roughnessFactor" : 0.07000000029802322}, "emissiveFactor" : [0, 0, 0], "alphaMode" : "OPAQUE", "doubleSided" : false}, {"name" : "", "pbrMetallicRoughness" : {"baseColorFactor" : [0.9279999732971191, 0.949999988079071, 0.9620000123977661, 1], "metallicFactor" : 1, "roughnessFactor" : 0.07000000029802322}, "emissiveFactor" : [0, 0, 0], "alphaMode" : "OPAQUE", "doubleSided" : false}], "meshes" : [{"primitives" : [{"attributes" : {"POSITION" : 1, "NORMAL" : 2}, "indices" : 0, "material" : 0, "mode" : 4}], "name" : ""}, {"primitives" : [{"attributes" : {"POSITION" : 4, "NORMAL" : 5}, "indices" : 3, "material" : 1, "mode" : 4}], "name" : ""}, {"primitives" : [{"attributes" : {"POSITION" : 7, "NORMAL" : 8}, "indices" : 6, "material" : 2, "mode" : 4}], "name" : ""}, {"primitives" : [{"attributes" : {"POSITION" : 10, "NORMAL" : 11}, "indices" : 9, "material" : 3, "mode" : 4}], "name" : ""}, {"primitives" : [{"attributes" : {"POSITION" : 13, "NORMAL" : 14}, "indices" : 12, "material" : 4, "mode" : 4}], "name" : ""}], "nodes" : [{"matrix" : [-1.7263075534787894E-09, -0.010595999999999859, 0, 0, -1.7263075534787664E-09, 2.812512050960668E-16, 0.010595999999999859, 0, -0.010595999999999717, 1.7263075534787664E-09, -1.7263075534787894E-09, 0, -9.812965393066406, 9.070749911188614E-07, -1.69915771484375, 1], "mesh" : 0, "name" : "Line003"}, {"matrix" : [0.9999999999999962, -8.742277669594042E-08, 0, 0, 1.0425061825386971E-15, 1.192488069973535E-08, 0.9999999999999999, 0, 8.742277669594041E-08, 0.9999999999999961, -1.1924880699735394E-08, 0, 4.723681926727295, -6.073709487915039, -1.9909229278564453, 1], "mesh" : 1, "name" : "Line001"}, {"matrix" : [1, 0, 0, 0, 0, 6.123233995736766E-17, 1, 0, 0, -1, 6.123233995736766E-17, 0, 4.723681926727295, 6.0742902755737305, -1.9909229278564453, 1], "mesh" : 2, "name" : "Line002"}, {"matrix" : [0.996194700054507, 0, -0.08715572031318838, 0, 0, 1, 0, 0, 0.08715572031318838, 0, 0.996194700054507, 0, 0.2977358102798462, 9.5367431640625E-07, 0.7788710594177246, 1], "mesh" : 3, "name" : "crown"}, {"matrix" : [1, 0, 0, 0, 0, 1, 0, 0, 0, 0, 1, 0, 0.07492446899414062, 9.5367431640625E-07, -2.750542640686035, 1], "mesh" : 4, "name" : "Arc002"}, {"children" : [0, 1, 2, 3, 4], "matrix" : [1, 0, 0, 0, 0, 6.123233995736766E-17, -1, 0, 0, 1, 6.123233995736766E-17, 0, -0.07492446899414062, 2.750542640686035, 9.5367431640625E-07, 1], "name" : "001"}], "scene" : 0, "scenes" : [{"nodes" : [5]}]}